<svg xmlns="http://www.w3.org/2000/svg" width="56.697" height="28.615" viewBox="0 0 56.697 28.615">
  <g id="Group_517" data-name="Group 517" transform="translate(-194.617 -293.971)">
    <path id="Path_269" data-name="Path 269" d="M194.618,293.971v2.307c5.188.857,13.916,3.383,17.873,7.8a29.337,29.337,0,0,0-5.738,3.114v4.767a27.036,27.036,0,0,1,5.888-5.476c.332-.244.695-.477,1.07-.7a6.817,6.817,0,0,1,.716,1.915c.72,3.532-1.707,7.284-7.186,11.176l-2.616,3.717c10.705-6.767,11.974-11.435,11.212-15.18a8.361,8.361,0,0,0-.868-2.321,49.71,49.71,0,0,1,11.013-3.605s-3.169-.252-9.9,1.415c-.75.186-1.459.409-2.146.645-2.927-3.6-8.45-5.9-13.15-7.28l-3.457-.85h29.72l1.436,3.568v-5.006Z" fill="#0097e1" fill-rule="evenodd"/>
    <path id="Path_270" data-name="Path 270" d="M233,320.74H211.319v1.436h24.828C234.913,321.686,233.829,321.171,233,320.74Z" fill="#1a1818" fill-rule="evenodd"/>
    <path id="Path_271" data-name="Path 271" d="M230.433,296.815v1.437h15.715s-9.422,4.324-11.471,5.3c-6.1,2.911-7.235,6.206-7.112,8.458.163,2.925,2.573,5.66,6.969,7.909l1.73.82c.892.426,2.1.909,3.134,1.305v-1.619c-6.534-2.328-10.223-5.339-10.4-8.493-.143-2.6,2.035-5.05,6.3-7.082l16.016-7.75v-.286Z" fill="#1a1818" fill-rule="evenodd"/>
  </g>
</svg>
