<?xml version="1.0" encoding="UTF-8"?>
<svg width="148px" height="29px" viewBox="0 0 148 29" version="1.1" xmlns="http://www.w3.org/2000/svg" xmlns:xlink="http://www.w3.org/1999/xlink">
    <title>Group 2</title>
    <g id="Page-1" stroke="none" stroke-width="1" fill="none" fill-rule="evenodd">
        <g id="Forge" transform="translate(-231.000000, -599.000000)" fill="#FFFFFF">
            <g id="Group-2" transform="translate(231.000000, 599.000000)">
                <g id="Group">
                    <g id="Path">
                        <path d="M20.9,13.7 C21.6,17.2 19.2,21 13.7,24.9 L11.1,28.6 C21.8,21.8 23.1,17.2 22.3,13.4 C21.1,7.5 13.4,4.1 7.2,2.3 L3.7,1.5 L33.4,1.5 L34.8,5.1 L34.8,0.1 L0.9,0.1 L0.9,2.4 C7.5,3.3 19.5,7 20.9,13.7 Z"></path>
                        <path d="M22.5,8.9 C17.9,10 14.4,12.3 13.2,13.2 L13.2,18 C13.6,17.5 15.2,15.4 19.1,12.5 C23.6,9.2 32.4,7.5 32.4,7.5 C32.4,7.5 29.3,7.2 22.5,8.9 Z"></path>
                    </g>
                    <path d="M39.4,26.7 L17.7,26.7 L17.7,28.1 L42.5,28.1 C41.4,27.7 40.3,27.2 39.4,26.7 Z" id="Path"></path>
                    <path d="M36.9,2.8 L36.9,4.2 L52.6,4.2 C52.6,4.2 43.2,8.5 41.1,9.5 C35,12.4 33.9,15.7 34,18 C34.2,20.9 36.6,23.7 41,25.9 L42.7,26.7 C43.6,27.1 44.8,27.6 45.8,28 L45.8,26.4 C39.3,24.1 35.6,21.1 35.4,17.9 C35.3,15.3 37.4,12.9 41.7,10.8 L57.7,3 L57.7,2.7 L36.9,2.7 L36.9,2.8 Z" id="Path"></path>
                </g>
                <g id="Group" transform="translate(62.000000, 4.000000)" fill-rule="nonzero">
                    <g>
                        <polygon id="Path" points="0.5 15.7 3.3 15.7 3.3 9.9 10.7 9.9 10.7 7.5 3.3 7.5 3.3 2.9 11.6 2.9 11.6 0.5 0.5 0.5"></polygon>
                        <path d="M27.7,1.3 C26.4,0.6 25,0.3 23.5,0.3 C21.9,0.3 20.5,0.6 19.3,1.3 C18,2 17.1,2.9 16.4,4.1 C15.7,5.3 15.3,6.6 15.3,8.1 C15.3,9.6 15.7,10.9 16.4,12.1 C17.1,13.3 18.1,14.2 19.3,14.9 C20.5,15.6 22,15.9 23.5,15.9 C25.1,15.9 26.5,15.6 27.7,14.9 C29,14.2 29.9,13.3 30.6,12.1 C31.3,10.9 31.7,9.6 31.7,8.1 C31.7,6.6 31.3,5.3 30.6,4.1 C29.9,2.9 29,2 27.7,1.3 Z M28.2,10.9 C27.7,11.7 27.1,12.4 26.3,12.8 C25.5,13.3 24.6,13.5 23.6,13.5 C22.6,13.5 21.7,13.3 20.9,12.8 C20.1,12.3 19.4,11.7 19,10.9 C18.5,10.1 18.3,9.2 18.3,8.1 C18.3,7.1 18.5,6.2 19,5.3 C19.5,4.5 20.1,3.8 20.9,3.4 C21.7,2.9 22.6,2.7 23.6,2.7 C24.6,2.7 25.5,2.9 26.3,3.4 C27.1,3.9 27.8,4.5 28.2,5.3 C28.7,6.1 28.9,7 28.9,8.1 C28.9,9.1 28.6,10.1 28.2,10.9 Z" id="Shape"></path>
                        <path d="M48.8,8.9 C49.4,8.1 49.6,7.1 49.6,5.9 C49.6,4.8 49.3,3.8 48.8,3 C48.3,2.2 47.5,1.6 46.5,1.1 C45.5,0.7 44.4,0.4 43,0.4 L36.7,0.4 L36.7,15.7 L39.5,15.7 L39.5,11.3 L42.9,11.3 C43.2,11.3 43.4,11.3 43.5,11.3 L46.6,15.8 L49.7,15.8 L46.2,10.8 C47.5,10.3 48.3,9.7 48.8,8.9 Z M43.1,9 L39.8,9 L39.8,2.9 L43.1,2.9 C44.3,2.9 45.3,3.2 45.9,3.7 C46.5,4.2 46.9,5 46.9,5.9 C46.9,6.8 46.6,7.6 45.9,8.2 C45.2,8.7 44.3,9 43.1,9 Z" id="Shape"></path>
                        <path d="M59.5,3.4 C60.3,2.9 61.3,2.7 62.4,2.7 C64,2.7 65.4,3.3 66.6,4.4 L68.4,2.7 C67.7,1.9 66.8,1.3 65.8,0.8 C64.8,0.4 63.6,0.2 62.3,0.2 C60.7,0.2 59.3,0.5 58.1,1.2 C56.8,1.9 55.9,2.8 55.1,4 C54.4,5.2 54,6.5 54,8 C54,9.5 54.4,10.8 55.1,12 C55.8,13.2 56.8,14.1 58,14.8 C59.2,15.5 60.7,15.8 62.2,15.8 C63.3,15.8 64.4,15.6 65.4,15.3 C66.4,15 67.4,14.5 68.1,13.9 L68.1,9.3 L68.1,9.3 L68.1,6.6 L61.8,6.6 L61.8,9.3 L65.5,9.3 L65.5,12.5 C64.6,13 63.6,13.3 62.4,13.3 C61.3,13.3 60.4,13.1 59.6,12.6 C58.8,12.1 58.1,11.5 57.6,10.7 C57.1,9.9 56.9,9 56.9,8 C56.9,7 57.1,6 57.6,5.2 C58,4.5 58.6,3.9 59.5,3.4 Z" id="Path"></path>
                        <polygon id="Path" points="76.9 13.4 76.9 9.2 84.2 9.2 84.2 6.8 76.9 6.8 76.9 2.9 85.2 2.9 85.2 0.5 74 0.5 74 15.7 85.5 15.7 85.5 13.4"></polygon>
                    </g>
                    <g transform="translate(0.000000, 19.000000)">
                        <polygon id="Path" points="1.9 1.2 0.2 1.2 0.2 0.4 4.6 0.4 4.6 1.2 2.9 1.2 2.9 5.6 1.9 5.6"></polygon>
                        <polygon id="Path" points="11.4 4.8 11.4 5.6 7.5 5.6 7.5 0.4 11.3 0.4 11.3 1.2 8.5 1.2 8.5 2.6 11 2.6 11 3.4 8.5 3.4 8.5 4.8 11.4 4.8"></polygon>
                        <path d="M15.7,5.3 C15.3,5.1 14.9,4.8 14.7,4.3 C14.5,3.8 14.3,3.4 14.3,2.9 C14.3,2.4 14.4,1.9 14.7,1.5 C14.9,1.1 15.3,0.8 15.7,0.5 C16.1,0.2 16.6,0.2 17.1,0.2 C17.5,0.2 17.9,0.3 18.3,0.4 C18.7,0.5 18.9,0.8 19.2,1 L18.6,1.6 C18.2,1.2 17.8,1 17.2,1 C16.8,1 16.5,1.1 16.2,1.2 C15.9,1.4 15.7,1.6 15.5,1.9 C15.3,2.2 15.3,2.5 15.3,2.8 C15.3,3.2 15.4,3.5 15.5,3.7 C15.7,4 15.9,4.2 16.2,4.4 C16.5,4.6 16.8,4.6 17.2,4.6 C17.7,4.6 18.2,4.4 18.6,4 L19.2,4.6 C19,4.9 18.7,5.1 18.3,5.2 C17.9,5.3 17.6,5.4 17.1,5.4 C16.6,5.6 16.1,5.5 15.7,5.3 Z" id="Path"></path>
                        <polygon id="Path" points="27 0.4 27 5.6 26 5.6 26 3.4 23.3 3.4 23.3 5.6 22.3 5.6 22.3 0.4 23.3 0.4 23.3 2.5 26 2.5 26 0.4"></polygon>
                        <polygon id="Path" points="35.2 0.4 35.2 5.6 34.4 5.6 31.5 2.1 31.5 5.6 30.5 5.6 30.5 0.4 31.3 0.4 34.2 3.9 34.2 0.4"></polygon>
                        <path d="M39.9,5.3 C39.5,5.1 39.1,4.8 38.9,4.3 C38.7,3.8 38.5,3.4 38.5,2.9 C38.5,2.4 38.6,1.9 38.9,1.5 C39.1,1.1 39.5,0.8 39.9,0.5 C40.3,0.2 40.8,0.2 41.3,0.2 C41.8,0.2 42.3,0.3 42.7,0.5 C43.1,0.7 43.5,1 43.7,1.5 C43.9,1.9 44.1,2.4 44.1,2.9 C44.1,3.4 44,3.9 43.7,4.3 C43.4,4.7 43.1,5 42.7,5.3 C42.3,5.6 41.8,5.6 41.3,5.6 C40.8,5.6 40.3,5.5 39.9,5.3 Z M42.2,4.6 C42.5,4.4 42.7,4.2 42.9,3.9 C43.1,3.6 43.1,3.3 43.1,3 C43.1,2.7 43,2.3 42.9,2.1 C42.7,1.8 42.5,1.6 42.2,1.4 C41.9,1.2 41.6,1.2 41.3,1.2 C41,1.2 40.6,1.3 40.4,1.4 C40.2,1.5 39.9,1.8 39.7,2.1 C39.5,2.4 39.5,2.7 39.5,3 C39.5,3.3 39.6,3.7 39.7,3.9 C39.9,4.2 40.1,4.4 40.4,4.6 C40.7,4.8 41,4.8 41.3,4.8 C41.6,4.8 42,4.7 42.2,4.6 Z" id="Shape"></path>
                        <polygon id="Path" points="47.4 0.4 48.4 0.4 48.4 4.8 51.1 4.8 51.1 5.6 47.4 5.6"></polygon>
                        <path d="M54.9,5.3 C54.5,5.1 54.1,4.8 53.9,4.3 C53.7,3.8 53.5,3.4 53.5,2.9 C53.5,2.4 53.6,1.9 53.9,1.5 C54.1,1.1 54.5,0.8 54.9,0.5 C55.3,0.2 55.8,0.2 56.3,0.2 C56.8,0.2 57.3,0.3 57.7,0.5 C58.1,0.7 58.5,1 58.7,1.5 C58.9,1.9 59.1,2.4 59.1,2.9 C59.1,3.4 59,3.9 58.7,4.3 C58.4,4.7 58.1,5 57.7,5.3 C57.3,5.6 56.8,5.6 56.3,5.6 C55.8,5.6 55.4,5.5 54.9,5.3 Z M57.3,4.6 C57.6,4.4 57.8,4.2 58,3.9 C58.2,3.6 58.2,3.3 58.2,3 C58.2,2.7 58.1,2.3 58,2.1 C57.8,1.8 57.6,1.6 57.3,1.4 C57,1.2 56.7,1.2 56.4,1.2 C56.1,1.2 55.7,1.3 55.5,1.4 C55.3,1.5 55,1.8 54.8,2.1 C54.6,2.4 54.6,2.7 54.6,3 C54.6,3.3 54.7,3.7 54.8,3.9 C55,4.2 55.2,4.4 55.5,4.6 C55.8,4.8 56.1,4.8 56.4,4.8 C56.7,4.8 57,4.7 57.3,4.6 Z" id="Shape"></path>
                        <path d="M66,2.9 L66.9,2.9 L66.9,5 C66.6,5.2 66.3,5.4 66,5.5 C65.6,5.6 65.3,5.7 64.9,5.7 C64.4,5.7 63.9,5.6 63.5,5.4 C63.1,5.2 62.7,4.9 62.5,4.4 C62.3,3.9 62.1,3.5 62.1,3 C62.1,2.5 62.2,2 62.5,1.6 C62.7,1.2 63.1,0.9 63.5,0.6 C63.9,0.3 64.4,0.3 64.9,0.3 C65.3,0.3 65.7,0.4 66.1,0.5 C66.5,0.6 66.8,0.9 67,1.1 L66.4,1.7 C66,1.3 65.5,1.1 65,1.1 C64.6,1.1 64.3,1.2 64,1.3 C63.7,1.4 63.5,1.7 63.3,1.9 C63.1,2.2 63.1,2.5 63.1,2.9 C63.1,3.2 63.2,3.6 63.3,3.8 C63.5,4.1 63.7,4.3 64,4.5 C64.3,4.7 64.6,4.7 65,4.7 C65.4,4.7 65.8,4.6 66.1,4.4 L66.1,2.9 L66,2.9 Z" id="Path"></path>
                        <polygon id="Path" points="70.4 0.4 71.4 0.4 71.4 5.6 70.4 5.6"></polygon>
                        <polygon id="Path" points="78.9 4.8 78.9 5.6 75 5.6 75 0.4 78.8 0.4 78.8 1.2 76 1.2 76 2.6 78.5 2.6 78.5 3.4 76 3.4 76 4.8 78.9 4.8"></polygon>
                        <path d="M82.7,5.5 C82.3,5.4 82,5.2 81.8,5 L82.1,4.2 C82.3,4.4 82.6,4.5 82.9,4.6 C83.2,4.7 83.5,4.8 83.8,4.8 C84.2,4.8 84.5,4.7 84.7,4.6 C84.9,4.5 85,4.3 85,4.1 C85,4 84.9,3.8 84.8,3.7 C84.7,3.6 84.6,3.5 84.4,3.5 C84.2,3.4 84,3.4 83.7,3.3 C83.3,3.2 83,3.1 82.7,3 C82.5,2.9 82.2,2.8 82.1,2.6 C81.9,2.4 81.8,2.1 81.8,1.8 C81.8,1.5 81.9,1.3 82,1 C82.2,0.8 82.4,0.6 82.7,0.4 C83,0.3 83.4,0.2 83.9,0.2 C84.2,0.2 84.5,0.2 84.8,0.3 C85.1,0.4 85.4,0.5 85.6,0.6 L85.3,1.4 C85.1,1.3 84.8,1.2 84.6,1.1 C84.4,1 84.1,1 83.9,1 C83.5,1 83.2,1.1 83,1.2 C82.8,1.3 82.7,1.5 82.7,1.7 C82.7,1.8 82.8,2 82.9,2.1 C83,2.2 83.1,2.3 83.3,2.3 C83.5,2.4 83.7,2.4 84,2.5 C84.4,2.6 84.7,2.7 85,2.8 C85.2,2.9 85.5,3 85.6,3.2 C85.8,3.4 85.9,3.7 85.9,4 C85.9,4.3 85.8,4.5 85.7,4.8 C85.6,5.1 85.3,5.2 85,5.4 C84.7,5.6 84.3,5.6 83.8,5.6 C83.4,5.6 83.1,5.6 82.7,5.5 Z" id="Path"></path>
                    </g>
                </g>
            </g>
        </g>
    </g>
</svg>