<?xml version="1.0" encoding="UTF-8"?>
<svg width="87px" height="72px" viewBox="0 0 87 72" version="1.1" xmlns="http://www.w3.org/2000/svg" xmlns:xlink="http://www.w3.org/1999/xlink">
    <!-- Generator: Sketch 64 (93537) - https://sketch.com -->
    <title>Group 2</title>
    <desc>Created with Sketch.</desc>
    <g id="Page-1" stroke="none" stroke-width="1" fill="none" fill-rule="evenodd">
        <g id="Group-2">
            <g id="Group" transform="translate(8.000000, 0.000000)">
                <path d="M0.3,0.3 L0.3,3.2 C6.7,4.3 17.5,7.4 22.4,12.8 C19,14.2 16.4,15.9 15.3,16.7 L15.3,22.6 C15.7,22 17.8,19.4 22.6,15.8 C23,15.5 23.5,15.2 23.9,14.9 C24.3,15.7 24.6,16.4 24.8,17.3 C25.7,21.7 22.7,26.3 15.9,31.1 L12.7,35.7 C25.9,27.3 27.5,21.6 26.6,16.9 C26.4,15.9 26,14.9 25.5,14 C31.3,11.1 39.1,9.5 39.1,9.5 C39.1,9.5 35.2,9.2 26.8,11.3 C25.9,11.5 25,11.8 24.1,12.1 C20.5,7.7 13.6,4.8 7.8,3.1 L3.5,2 L40.3,2 L42.1,6.4 L42.1,0.2 L0.3,0.2 L0.3,0.3 Z" id="Path" fill="#009DDF"></path>
                <path d="M47.8,33.4 L21,33.4 L21,35.2 L51.7,35.2 C50.1,34.6 48.8,34 47.8,33.4 Z" id="Path" fill="#000000" fill-rule="nonzero"></path>
                <path d="M44.6,3.8 L44.6,5.6 L64,5.6 C64,5.6 52.3,10.9 49.8,12.2 C42.3,15.8 40.8,19.9 41,22.7 C41.2,26.3 44.2,29.7 49.6,32.5 L51.7,33.5 C52.8,34 54.3,34.6 55.6,35.1 L55.6,33.1 C47.5,30.2 43,26.5 42.7,22.6 C42.5,19.4 45.2,16.4 50.5,13.8 L70.3,4.2 L70.3,3.8 L44.6,3.8 Z" id="Path" fill="#000000" fill-rule="nonzero"></path>
            </g>
            <g id="Group" transform="translate(0.000000, 47.000000)" fill-rule="nonzero">
                <g fill="#000000">
                    <polygon id="Path" points="0.7 15.5 3.6 15.5 3.6 9.7 10.9 9.7 10.9 7.3 3.6 7.3 3.6 2.7 11.9 2.7 11.9 0.3 0.7 0.3"></polygon>
                    <path d="M28,1.1 C26.7,0.4 25.3,0.1 23.8,0.1 C22.2,0.1 20.8,0.4 19.6,1.1 C18.3,1.8 17.4,2.7 16.7,3.9 C16,5.1 15.6,6.4 15.6,7.9 C15.6,9.4 16,10.7 16.7,11.9 C17.4,13.1 18.4,14 19.6,14.7 C20.8,15.4 22.3,15.7 23.8,15.7 C25.4,15.7 26.8,15.4 28,14.7 C29.3,14 30.2,13.1 30.9,11.9 C31.6,10.7 32,9.4 32,7.9 C32,6.4 31.6,5.1 30.9,3.9 C30.2,2.7 29.2,1.8 28,1.1 Z M28.4,10.7 C27.9,11.5 27.3,12.2 26.5,12.6 C25.7,13.1 24.8,13.3 23.8,13.3 C22.8,13.3 21.9,13.1 21.1,12.6 C20.3,12.1 19.6,11.5 19.2,10.7 C18.7,9.9 18.5,9 18.5,7.9 C18.5,6.9 18.7,6 19.2,5.1 C19.7,4.3 20.3,3.6 21.1,3.2 C21.9,2.7 22.8,2.5 23.8,2.5 C24.8,2.5 25.7,2.7 26.5,3.2 C27.3,3.7 28,4.3 28.4,5.1 C28.9,5.9 29.1,6.8 29.1,7.9 C29.1,8.9 28.9,9.8 28.4,10.7 Z" id="Shape"></path>
                    <path d="M49.1,8.7 C49.7,7.9 49.9,6.9 49.9,5.7 C49.9,4.6 49.6,3.6 49.1,2.8 C48.6,2 47.8,1.4 46.8,0.9 C45.8,0.5 44.7,0.2 43.3,0.2 L37,0.2 L37,15.5 L39.8,15.5 L39.8,11.1 L43.2,11.1 C43.5,11.1 43.7,11.1 43.8,11.1 L46.9,15.6 L50,15.6 L46.5,10.6 C47.7,10.1 48.6,9.5 49.1,8.7 Z M43.3,8.8 L40,8.8 L40,2.7 L43.3,2.7 C44.5,2.7 45.5,3 46.1,3.5 C46.7,4 47.1,4.8 47.1,5.7 C47.1,6.6 46.8,7.4 46.1,8 C45.5,8.5 44.6,8.8 43.3,8.8 Z" id="Shape"></path>
                    <path d="M59.7,3.2 C60.5,2.7 61.5,2.5 62.6,2.5 C64.2,2.5 65.6,3.1 66.8,4.2 L68.6,2.5 C67.9,1.7 67,1.1 66,0.6 C65,0.2 63.8,0 62.5,0 C60.9,0 59.5,0.3 58.3,1 C57,1.7 56.1,2.6 55.3,3.8 C54.6,5 54.2,6.3 54.2,7.8 C54.2,9.3 54.6,10.6 55.3,11.8 C56,13 57,13.9 58.2,14.6 C59.4,15.3 60.9,15.6 62.4,15.6 C63.5,15.6 64.6,15.4 65.6,15.1 C66.6,14.8 67.6,14.3 68.3,13.7 L68.3,9.1 L68.3,9.1 L68.3,6.4 L62,6.4 L62,9.1 L65.7,9.1 L65.7,12.3 C64.8,12.8 63.8,13.1 62.6,13.1 C61.5,13.1 60.6,12.9 59.8,12.4 C59,11.9 58.3,11.3 57.8,10.5 C57.3,9.7 57.1,8.8 57.1,7.8 C57.1,6.8 57.3,5.8 57.8,5 C58.2,4.3 58.9,3.7 59.7,3.2 Z" id="Path"></path>
                    <polygon id="Path" points="77.1 13.2 77.1 9 84.5 9 84.5 6.6 77.1 6.6 77.1 2.7 85.4 2.7 85.4 0.3 74.3 0.3 74.3 15.5 85.8 15.5 85.8 13.2"></polygon>
                </g>
                <g transform="translate(0.000000, 19.000000)" fill="#4D4D4D">
                    <polygon id="Path" points="2.1 1 0.4 1 0.4 0.2 4.8 0.2 4.8 1 3.1 1 3.1 5.4 2.1 5.4 2.1 1"></polygon>
                    <polygon id="Path" points="11.7 4.6 11.7 5.4 7.8 5.4 7.8 0.2 11.6 0.2 11.6 1 8.8 1 8.8 2.4 11.3 2.4 11.3 3.2 8.8 3.2 8.8 4.6 11.7 4.6"></polygon>
                    <path d="M16,5.1 C15.6,4.9 15.2,4.6 15,4.1 C14.8,3.7 14.6,3.2 14.6,2.7 C14.6,2.2 14.7,1.7 15,1.3 C15.2,0.9 15.6,0.6 16,0.3 C16.4,-2.84217094e-14 16.9,-2.84217094e-14 17.4,-2.84217094e-14 C17.8,-2.84217094e-14 18.2,0.1 18.6,0.2 C19,0.3 19.2,0.6 19.5,0.8 L18.9,1.4 C18.5,1 18.1,0.8 17.5,0.8 C17.1,0.8 16.8,0.9 16.5,1 C16.2,1.2 16,1.4 15.8,1.7 C15.6,2 15.6,2.3 15.6,2.6 C15.6,2.9 15.7,3.3 15.8,3.5 C16,3.8 16.2,4 16.5,4.2 C16.8,4.4 17.1,4.4 17.5,4.4 C18.1,4.4 18.5,4.2 18.9,3.8 L19.5,4.4 C19.3,4.7 19,4.9 18.6,5 C18.2,5.1 17.9,5.2 17.4,5.2 C16.9,5.4 16.4,5.3 16,5.1 Z" id="Path"></path>
                    <polygon id="Path" points="27.3 0.2 27.3 5.4 26.3 5.4 26.3 3.2 23.6 3.2 23.6 5.4 22.6 5.4 22.6 0.2 23.6 0.2 23.6 2.3 26.3 2.3 26.3 0.2"></polygon>
                    <polygon id="Path" points="35.5 0.2 35.5 5.4 34.7 5.4 31.8 1.9 31.8 5.4 30.8 5.4 30.8 0.2 31.6 0.2 34.5 3.7 34.5 0.2"></polygon>
                    <path d="M40.1,5.1 C39.7,4.9 39.3,4.5 39.1,4.1 C38.9,3.7 38.7,3.2 38.7,2.7 C38.7,2.2 38.8,1.7 39.1,1.3 C39.3,0.9 39.7,0.6 40.1,0.3 C40.5,-2.84217094e-14 41,-2.84217094e-14 41.5,-2.84217094e-14 C42,-2.84217094e-14 42.5,0.1 42.9,0.3 C43.3,0.5 43.7,0.8 43.9,1.3 C44.1,1.7 44.3,2.2 44.3,2.7 C44.3,3.2 44.2,3.7 43.9,4.1 C43.7,4.5 43.3,4.8 42.9,5.1 C42.5,5.3 42,5.4 41.5,5.4 C41,5.4 40.6,5.3 40.1,5.1 Z M42.5,4.4 C42.8,4.2 43,4 43.2,3.7 C43.4,3.4 43.4,3.1 43.4,2.8 C43.4,2.5 43.3,2.1 43.2,1.9 C43,1.6 42.8,1.4 42.5,1.2 C42.2,1 41.9,1 41.6,1 C41.3,1 40.9,1.1 40.7,1.2 C40.4,1.4 40.2,1.6 40,1.9 C39.8,2.2 39.8,2.5 39.8,2.8 C39.8,3.1 39.9,3.5 40,3.7 C40.2,4 40.4,4.2 40.7,4.4 C41,4.6 41.3,4.6 41.6,4.6 C41.9,4.6 42.2,4.5 42.5,4.4 Z" id="Shape"></path>
                    <polygon id="Path" points="47.6 0.2 48.6 0.2 48.6 4.6 51.3 4.6 51.3 5.4 47.6 5.4"></polygon>
                    <path d="M55.2,5.1 C54.8,4.9 54.4,4.5 54.2,4.1 C54,3.7 53.8,3.2 53.8,2.7 C53.8,2.2 53.9,1.7 54.2,1.3 C54.4,0.9 54.8,0.6 55.2,0.3 C55.6,-2.84217094e-14 56.1,-2.84217094e-14 56.6,-2.84217094e-14 C57.1,-2.84217094e-14 57.6,0.1 58,0.3 C58.4,0.5 58.8,0.8 59,1.3 C59.2,1.8 59.4,2.2 59.4,2.7 C59.4,3.2 59.3,3.7 59,4.1 C58.8,4.5 58.4,4.8 58,5.1 C57.6,5.4 57.1,5.4 56.6,5.4 C56.1,5.4 55.6,5.3 55.2,5.1 Z M57.6,4.4 C57.9,4.2 58.1,4 58.3,3.7 C58.5,3.4 58.5,3.1 58.5,2.8 C58.5,2.5 58.4,2.1 58.3,1.9 C58.1,1.6 57.9,1.4 57.6,1.2 C57.3,1 57,1 56.7,1 C56.4,1 56,1.1 55.8,1.2 C55.6,1.3 55.3,1.6 55.1,1.9 C54.9,2.2 54.9,2.5 54.9,2.8 C54.9,3.1 55,3.5 55.1,3.7 C55.3,4 55.5,4.2 55.8,4.4 C56.1,4.6 56.4,4.6 56.7,4.6 C57,4.6 57.3,4.5 57.6,4.4 Z" id="Shape"></path>
                    <path d="M66.3,2.7 L67.2,2.7 L67.2,4.8 C66.9,5 66.6,5.2 66.3,5.3 C65.9,5.4 65.6,5.5 65.2,5.5 C64.7,5.5 64.2,5.4 63.8,5.2 C63.4,5 63,4.7 62.8,4.2 C62.6,3.8 62.4,3.3 62.4,2.8 C62.4,2.3 62.5,1.8 62.8,1.4 C63.1,1 63.4,0.7 63.8,0.4 C64.2,0.1 64.7,0.1 65.2,0.1 C65.6,0.1 66,0.2 66.4,0.3 C66.8,0.4 67.1,0.7 67.3,0.9 L66.7,1.5 C66.3,1.1 65.8,0.9 65.3,0.9 C64.9,0.9 64.6,1 64.3,1.1 C64,1.3 63.8,1.5 63.6,1.7 C63.4,2 63.4,2.3 63.4,2.7 C63.4,3 63.5,3.4 63.6,3.6 C63.7,3.8 64,4.1 64.3,4.3 C64.6,4.5 64.9,4.5 65.3,4.5 C65.7,4.5 66.1,4.4 66.4,4.2 L66.4,2.7 L66.3,2.7 Z" id="Path"></path>
                    <polygon id="Path" points="70.7 0.2 71.7 0.2 71.7 5.4 70.7 5.4"></polygon>
                    <polygon id="Path" points="79.2 4.6 79.2 5.4 75.3 5.4 75.3 0.2 79.1 0.2 79.1 1 76.3 1 76.3 2.4 78.8 2.4 78.8 3.2 76.3 3.2 76.3 4.6 79.2 4.6"></polygon>
                    <path d="M82.9,5.3 C82.5,5.2 82.2,5 82,4.8 L82.3,4 C82.5,4.2 82.8,4.3 83.1,4.4 C83.4,4.5 83.7,4.6 84,4.6 C84.4,4.6 84.7,4.5 84.9,4.4 C85.1,4.3 85.2,4.1 85.2,3.9 C85.2,3.8 85.1,3.6 85,3.5 C84.9,3.4 84.8,3.3 84.6,3.3 C84.4,3.2 84.2,3.2 83.9,3.1 C83.5,3 83.2,2.9 82.9,2.8 C82.7,2.7 82.4,2.6 82.3,2.4 C82.2,2.2 82,1.9 82,1.6 C82,1.3 82.1,1.1 82.2,0.8 C82.4,0.6 82.6,0.4 82.9,0.2 C83.2,0.1 83.6,0 84.1,0 C84.4,0 84.7,0 85,0.1 C85.3,0.2 85.6,0.3 85.8,0.4 L85.5,1.2 C85.3,1.1 85,1 84.8,0.9 C84.6,0.8 84.3,0.8 84.1,0.8 C83.7,0.8 83.4,0.9 83.2,1 C83,1.1 82.9,1.3 82.9,1.5 C82.9,1.6 83,1.8 83.1,1.9 C83.2,2 83.3,2.1 83.5,2.1 C83.7,2.2 83.9,2.2 84.2,2.3 C84.6,2.4 84.9,2.5 85.2,2.6 C85.4,2.7 85.7,2.8 85.8,3 C86,3.2 86.1,3.5 86.1,3.8 C86.1,4.1 86,4.3 85.9,4.6 C85.8,4.9 85.5,5 85.2,5.2 C84.9,5.4 84.5,5.4 84,5.4 C83.7,5.4 83.3,5.4 82.9,5.3 Z" id="Path"></path>
                </g>
            </g>
        </g>
    </g>
</svg>