<?xml version="1.0" encoding="UTF-8"?>
<svg width="148px" height="29px" viewBox="0 0 148 29" version="1.1" xmlns="http://www.w3.org/2000/svg" xmlns:xlink="http://www.w3.org/1999/xlink">
    <title>Group 2</title>
    <g id="Page-1" stroke="none" stroke-width="1" fill="none" fill-rule="evenodd">
        <g id="Forge" transform="translate(-152.000000, -250.000000)">
            <g id="Group-2" transform="translate(152.000000, 250.000000)">
                <g id="Group">
                    <path d="M0.6,0 L0.6,2.3 C5.8,3.2 14.5,5.7 18.5,10.1 C15.7,11.2 13.7,12.6 12.8,13.2 L12.8,18 C13.2,17.5 14.8,15.4 18.7,12.5 C19,12.3 19.4,12 19.8,11.8 C20.1,12.4 20.4,13 20.5,13.7 C21.2,17.2 18.8,21 13.3,24.9 L10.7,28.6 C21.4,21.8 22.7,17.2 21.9,13.4 C21.7,12.6 21.4,11.8 21,11.1 C25.7,8.7 32,7.5 32,7.5 C32,7.5 28.8,7.2 22.1,8.9 C21.3,9.1 20.6,9.3 20,9.5 C17.1,5.9 11.5,3.6 6.8,2.2 L3.3,1.4 L33,1.4 L34.4,5 L34.4,0 L0.6,0 Z" id="Path" fill="#1598C3"></path>
                    <path d="M39,26.7 L17.3,26.7 L17.3,28.1 L42.1,28.1 C40.9,27.7 39.8,27.2 39,26.7 Z" id="Path" fill="#000000" fill-rule="nonzero"></path>
                    <path d="M36.4,2.8 L36.4,4.2 L52.1,4.2 C52.1,4.2 42.7,8.5 40.6,9.5 C34.5,12.4 33.4,15.7 33.5,18 C33.7,20.9 36.1,23.7 40.5,25.9 L42.2,26.7 C43.1,27.1 44.3,27.6 45.3,28 L45.3,26.4 C38.8,24.1 35.1,21.1 34.9,17.9 C34.8,15.3 36.9,12.9 41.2,10.8 L57.2,3.1 L57.2,2.8 L36.4,2.8 L36.4,2.8 Z" id="Path" fill="#000000" fill-rule="nonzero"></path>
                </g>
                <g id="Group" transform="translate(61.000000, 4.000000)" fill-rule="nonzero">
                    <g transform="translate(1.000000, 0.000000)" fill="#000000">
                        <polygon id="Path" points="0 15.8 2.9 15.8 2.9 9.9 10.2 9.9 10.2 7.5 2.9 7.5 2.9 2.9 11.2 2.9 11.2 0.5 0 0.5"></polygon>
                        <path d="M27.3,1.3 C26,0.6 24.6,0.3 23.1,0.3 C21.5,0.3 20.1,0.6 18.9,1.3 C17.6,2 16.7,2.9 16,4.1 C15.3,5.3 14.9,6.6 14.9,8.1 C14.9,9.6 15.3,10.9 16,12.1 C16.7,13.3 17.7,14.2 18.9,14.9 C20.1,15.6 21.6,15.9 23.1,15.9 C24.7,15.9 26.1,15.6 27.3,14.9 C28.6,14.2 29.5,13.3 30.2,12.1 C30.9,10.9 31.3,9.6 31.3,8.1 C31.3,6.6 30.9,5.3 30.2,4.1 C29.5,2.9 28.5,2 27.3,1.3 Z M27.7,10.9 C27.2,11.7 26.6,12.4 25.8,12.8 C25,13.3 24.1,13.5 23.1,13.5 C22.1,13.5 21.2,13.3 20.4,12.8 C19.6,12.3 18.9,11.7 18.5,10.9 C18,10.1 17.8,9.2 17.8,8.1 C17.8,7.1 18,6.2 18.5,5.3 C19,4.5 19.6,3.8 20.4,3.4 C21.2,2.9 22.1,2.7 23.1,2.7 C24.1,2.7 25,2.9 25.8,3.4 C26.6,3.9 27.3,4.5 27.7,5.3 C28.2,6.1 28.4,7 28.4,8.1 C28.4,9.1 28.2,10.1 27.7,10.9 Z" id="Shape"></path>
                        <path d="M48.4,8.9 C49,8.1 49.2,7.1 49.2,5.9 C49.2,4.8 48.9,3.8 48.4,3 C47.9,2.2 47.1,1.6 46.1,1.1 C45.1,0.7 44,0.4 42.6,0.4 L36.3,0.4 L36.3,15.7 L39.1,15.7 L39.1,11.3 L42.5,11.3 C42.8,11.3 43,11.3 43.1,11.3 L46.2,15.8 L49.3,15.8 L45.8,10.8 C47,10.3 47.8,9.7 48.4,8.9 Z M42.6,9 L39.3,9 L39.3,2.9 L42.6,2.9 C43.8,2.9 44.8,3.2 45.4,3.7 C46,4.2 46.4,5 46.4,5.9 C46.4,6.8 46.1,7.6 45.4,8.2 C44.8,8.7 43.9,9 42.6,9 Z" id="Shape"></path>
                        <path d="M59,3.4 C59.8,2.9 60.8,2.7 61.9,2.7 C63.5,2.7 64.9,3.3 66.1,4.4 L67.9,2.7 C67.2,1.9 66.3,1.3 65.3,0.8 C64.3,0.4 63.1,0.2 61.8,0.2 C60.2,0.2 58.8,0.5 57.6,1.2 C56.3,1.9 55.4,2.8 54.6,4 C53.9,5.2 53.5,6.5 53.5,8 C53.5,9.5 53.9,10.8 54.6,12 C55.3,13.2 56.3,14.1 57.5,14.8 C58.7,15.5 60.2,15.8 61.7,15.8 C62.8,15.8 63.9,15.6 64.9,15.3 C65.9,15 66.9,14.5 67.6,13.9 L67.6,9.3 L67.6,9.3 L67.6,6.6 L61.3,6.6 L61.3,9.3 L65,9.3 L65,12.5 C64.1,13 63.1,13.3 61.9,13.3 C60.8,13.3 59.9,13.1 59.1,12.6 C58.3,12.1 57.6,11.5 57.1,10.7 C56.6,9.9 56.4,9 56.4,8 C56.4,7 56.6,6 57.1,5.2 C57.5,4.5 58.2,3.9 59,3.4 Z" id="Path"></path>
                        <polygon id="Path" points="76.4 13.4 76.4 9.2 83.8 9.2 83.8 6.8 76.4 6.8 76.4 2.9 84.7 2.9 84.7 0.5 73.6 0.5 73.6 15.8 85 15.8 85 13.4"></polygon>
                    </g>
                    <g transform="translate(0.000000, 19.000000)" fill="#4D4D4D">
                        <polygon id="Path" points="2.4 1.2 0.7 1.2 0.7 0.4 5.1 0.4 5.1 1.2 3.4 1.2 3.4 5.6 2.4 5.6"></polygon>
                        <polygon id="Path" points="12 4.8 12 5.6 8.1 5.6 8.1 0.4 11.9 0.4 11.9 1.2 9.1 1.2 9.1 2.6 11.6 2.6 11.6 3.4 9.1 3.4 9.1 4.8"></polygon>
                        <path d="M16.3,5.3 C15.9,5.1 15.5,4.8 15.3,4.3 C15.1,3.9 14.9,3.4 14.9,2.9 C14.9,2.4 15,1.9 15.3,1.5 C15.5,1.1 15.9,0.8 16.3,0.5 C16.7,0.3 17.2,0.2 17.7,0.2 C18.1,0.2 18.5,0.3 18.9,0.4 C19.3,0.5 19.6,0.8 19.8,1 L19.2,1.6 C18.8,1.2 18.4,1 17.8,1 C17.4,1 17.1,1.1 16.8,1.2 C16.5,1.4 16.3,1.6 16.1,1.9 C15.9,2.2 15.9,2.5 15.9,2.8 C15.9,3.1 16,3.5 16.1,3.7 C16.3,4 16.5,4.2 16.8,4.4 C17.1,4.6 17.4,4.6 17.8,4.6 C18.4,4.6 18.8,4.4 19.2,4 L19.8,4.6 C19.6,4.9 19.3,5.1 18.9,5.2 C18.5,5.3 18.2,5.4 17.7,5.4 C17.2,5.7 16.7,5.5 16.3,5.3 Z" id="Path"></path>
                        <polygon id="Path" points="27.5 0.4 27.5 5.6 26.5 5.6 26.5 3.4 23.8 3.4 23.8 5.6 22.8 5.6 22.8 0.4 23.8 0.4 23.8 2.5 26.5 2.5 26.5 0.4"></polygon>
                        <polygon id="Path" points="35.8 0.4 35.8 5.6 35 5.6 32.1 2.1 32.1 5.6 31.1 5.6 31.1 0.4 31.9 0.4 34.8 3.9 34.8 0.4"></polygon>
                        <path d="M40.4,5.3 C40,5.1 39.6,4.7 39.4,4.3 C39.2,3.9 39,3.4 39,2.9 C39,2.4 39.1,1.9 39.4,1.5 C39.6,1.1 40,0.8 40.4,0.5 C40.8,0.2 41.3,0.2 41.8,0.2 C42.3,0.2 42.8,0.3 43.2,0.5 C43.6,0.7 44,1 44.2,1.5 C44.4,2 44.6,2.4 44.6,2.9 C44.6,3.4 44.5,3.9 44.2,4.3 C44,4.7 43.6,5 43.2,5.3 C42.8,5.6 42.3,5.6 41.8,5.6 C41.3,5.7 40.9,5.5 40.4,5.3 Z M42.8,4.6 C43.1,4.4 43.3,4.2 43.5,3.9 C43.7,3.6 43.7,3.3 43.7,3 C43.7,2.7 43.6,2.3 43.5,2.1 C43.3,1.8 43.1,1.6 42.8,1.4 C42.5,1.2 42.2,1.2 41.9,1.2 C41.6,1.2 41.2,1.3 41,1.4 C40.8,1.5 40.5,1.8 40.3,2.1 C40.1,2.4 40.1,2.7 40.1,3 C40.1,3.3 40.2,3.7 40.3,3.9 C40.5,4.2 40.7,4.4 41,4.6 C41.3,4.8 41.6,4.8 41.9,4.8 C42.2,4.8 42.5,4.7 42.8,4.6 Z" id="Shape"></path>
                        <polygon id="Path" points="47.9 0.4 48.9 0.4 48.9 4.8 51.6 4.8 51.6 5.6 47.9 5.6"></polygon>
                        <path d="M55.5,5.3 C55.1,5.1 54.7,4.7 54.5,4.3 C54.3,3.9 54.1,3.4 54.1,2.9 C54.1,2.4 54.2,1.9 54.5,1.5 C54.7,1.1 55.1,0.8 55.5,0.5 C55.9,0.2 56.4,0.2 56.9,0.2 C57.4,0.2 57.9,0.3 58.3,0.5 C58.7,0.7 59.1,1 59.3,1.5 C59.5,2 59.7,2.4 59.7,2.9 C59.7,3.4 59.6,3.9 59.3,4.3 C59.1,4.7 58.7,5 58.3,5.3 C57.9,5.6 57.4,5.6 56.9,5.6 C56.4,5.7 55.9,5.5 55.5,5.3 Z M57.9,4.6 C58.2,4.4 58.4,4.2 58.6,3.9 C58.8,3.6 58.8,3.3 58.8,3 C58.8,2.7 58.7,2.3 58.6,2.1 C58.4,1.8 58.2,1.6 57.9,1.4 C57.6,1.2 57.3,1.2 57,1.2 C56.7,1.2 56.3,1.3 56.1,1.4 C55.9,1.5 55.6,1.8 55.4,2.1 C55.2,2.4 55.2,2.7 55.2,3 C55.2,3.3 55.3,3.7 55.4,3.9 C55.6,4.2 55.8,4.4 56.1,4.6 C56.4,4.8 56.7,4.8 57,4.8 C57.3,4.8 57.6,4.7 57.9,4.6 Z" id="Shape"></path>
                        <path d="M66.6,2.9 L67.5,2.9 L67.5,5 C67.2,5.2 66.9,5.4 66.6,5.5 C66.2,5.6 65.9,5.7 65.5,5.7 C65,5.7 64.5,5.6 64.1,5.4 C63.7,5.2 63.3,4.9 63.1,4.4 C62.9,4 62.7,3.5 62.7,3 C62.7,2.5 62.8,2 63.1,1.6 C63.4,1.2 63.7,0.9 64.1,0.6 C64.5,0.3 65,0.3 65.5,0.3 C65.9,0.3 66.3,0.4 66.7,0.5 C67.1,0.6 67.4,0.9 67.6,1.1 L67,1.7 C66.6,1.3 66.1,1.1 65.6,1.1 C65.2,1.1 64.9,1.2 64.6,1.3 C64.3,1.5 64.1,1.7 63.9,1.9 C63.7,2.2 63.7,2.5 63.7,2.9 C63.7,3.2 63.8,3.6 63.9,3.8 C64,4 64.3,4.3 64.6,4.5 C64.9,4.7 65.2,4.7 65.6,4.7 C66,4.7 66.4,4.6 66.7,4.4 L66.7,2.9 L66.6,2.9 Z" id="Path"></path>
                        <polygon id="Path" points="71 0.4 72 0.4 72 5.6 71 5.6"></polygon>
                        <polygon id="Path" points="79.5 4.8 79.5 5.6 75.6 5.6 75.6 0.4 79.4 0.4 79.4 1.2 76.6 1.2 76.6 2.6 79.1 2.6 79.1 3.4 76.6 3.4 76.6 4.8"></polygon>
                        <path d="M83.2,5.5 C82.8,5.4 82.5,5.2 82.3,5 L82.6,4.2 C82.8,4.4 83.1,4.5 83.4,4.6 C83.7,4.7 84,4.8 84.3,4.8 C84.7,4.8 85,4.7 85.2,4.6 C85.4,4.5 85.5,4.3 85.5,4.1 C85.5,4 85.4,3.8 85.3,3.7 C85.2,3.6 85.1,3.5 84.9,3.5 C84.7,3.4 84.5,3.4 84.2,3.3 C83.8,3.2 83.5,3.1 83.2,3 C83,2.9 82.7,2.8 82.6,2.6 C82.5,2.4 82.3,2.1 82.3,1.8 C82.3,1.5 82.4,1.3 82.5,1 C82.7,0.8 82.9,0.6 83.2,0.4 C83.5,0.3 83.9,0.2 84.4,0.2 C84.7,0.2 85,0.2 85.3,0.3 C85.6,0.4 85.9,0.5 86.1,0.6 L85.8,1.4 C85.6,1.3 85.3,1.2 85.1,1.1 C84.9,1 84.6,1 84.4,1 C84,1 83.7,1.1 83.5,1.2 C83.3,1.3 83.2,1.5 83.2,1.7 C83.2,1.8 83.3,2 83.4,2.1 C83.5,2.2 83.6,2.3 83.8,2.3 C84,2.4 84.2,2.4 84.5,2.5 C84.9,2.6 85.2,2.7 85.5,2.8 C85.7,2.9 86,3 86.1,3.2 C86.3,3.4 86.4,3.7 86.4,4 C86.4,4.3 86.3,4.5 86.2,4.8 C86.1,5.1 85.8,5.2 85.5,5.4 C85.2,5.6 84.8,5.6 84.3,5.6 C84,5.7 83.6,5.6 83.2,5.5 Z" id="Path"></path>
                    </g>
                </g>
            </g>
        </g>
    </g>
</svg>