<?xml version="1.0" standalone="no"?>
<!DOCTYPE svg PUBLIC "-//W3C//DTD SVG 20010904//EN"
 "http://www.w3.org/TR/2001/REC-SVG-20010904/DTD/svg10.dtd">
<svg version="1.0" xmlns="http://www.w3.org/2000/svg"
 width="1824.000000pt" height="1824.000000pt" viewBox="0 0 1824.000000 1824.000000"
 preserveAspectRatio="xMidYMid meet">
<metadata>
Created by potrace 1.11, written by Peter Selinger 2001-2013
</metadata>
<g transform="translate(0.000000,1824.000000) scale(0.100000,-0.100000)"
fill="#000000" stroke="none">
<path d="M0 13350 l0 -370 23 -5 c12 -3 33 -7 47 -9 14 -3 39 -8 55 -12 17 -3
44 -7 60 -9 30 -3 47 -7 135 -24 40 -8 138 -27 180 -35 8 -2 26 -6 40 -9 24
-7 42 -10 123 -23 20 -4 40 -11 43 -15 3 -5 9 -7 13 -5 4 3 45 -4 92 -15 46
-11 95 -22 109 -25 14 -3 52 -12 85 -20 33 -8 71 -17 85 -20 14 -3 70 -17 125
-31 54 -14 106 -27 115 -28 8 -2 15 -4 15 -5 0 -1 7 -3 15 -5 8 -2 24 -6 35
-9 103 -27 138 -36 190 -51 33 -9 67 -18 75 -20 8 -2 53 -15 100 -30 83 -25
102 -31 138 -39 25 -7 163 -50 262 -82 47 -15 90 -28 95 -30 6 -1 66 -21 134
-44 68 -23 129 -43 135 -45 6 -1 18 -5 26 -8 8 -4 53 -20 100 -36 47 -16 99
-35 115 -42 17 -7 35 -13 40 -14 13 -3 273 -103 300 -115 11 -5 45 -19 75 -30
30 -12 63 -26 72 -31 10 -5 25 -9 33 -9 8 0 15 -4 15 -10 0 -5 3 -9 8 -8 4 1
24 -6 46 -15 21 -9 40 -17 42 -17 2 0 27 -11 56 -24 124 -56 148 -66 158 -66
5 0 10 -4 10 -8 0 -5 6 -9 13 -9 31 -1 470 -220 717 -358 153 -85 177 -99 255
-148 125 -78 160 -101 163 -109 2 -5 8 -8 14 -8 10 0 154 -96 238 -158 92 -68
104 -78 139 -104 20 -16 47 -37 61 -48 14 -11 35 -28 47 -38 124 -99 192 -161
337 -304 l149 -148 -39 -16 c-21 -9 -64 -27 -94 -41 -30 -14 -61 -26 -67 -26
-7 0 -13 -4 -13 -9 0 -4 -3 -7 -7 -6 -5 1 -39 -12 -76 -30 -38 -18 -70 -32
-72 -32 -2 0 -54 -24 -115 -54 -60 -30 -110 -51 -110 -47 0 3 -4 1 -8 -4 -7
-11 -137 -75 -152 -75 -4 0 -10 -3 -12 -7 -1 -5 -41 -28 -88 -52 -47 -25 -112
-60 -145 -78 -33 -19 -71 -39 -85 -46 -14 -6 -27 -14 -30 -17 -3 -3 -16 -11
-30 -18 -14 -7 -34 -18 -45 -25 -11 -7 -42 -25 -70 -41 -45 -27 -151 -91 -200
-124 -11 -7 -28 -15 -37 -18 -10 -4 -18 -10 -18 -15 0 -5 -5 -9 -10 -9 -6 0
-16 -5 -23 -10 -7 -6 -70 -49 -142 -96 -71 -47 -137 -92 -145 -100 -13 -13
-15 -112 -15 -773 0 -516 3 -757 10 -755 5 2 19 18 30 34 11 17 23 30 28 30 4
0 7 6 7 14 0 8 4 16 9 18 4 2 46 48 92 103 46 55 93 109 104 121 11 12 47 52
80 89 74 84 487 500 572 575 33 30 89 80 123 110 35 30 70 63 79 73 8 9 19 17
23 17 4 0 18 10 30 23 32 31 127 110 144 120 8 4 26 20 42 34 15 14 38 33 52
41 14 9 34 24 45 34 49 43 135 109 135 104 0 -4 9 2 19 12 39 34 56 47 60 44
2 -2 7 0 10 5 3 5 22 20 41 33 19 14 40 28 45 33 28 23 238 167 342 233 l117
75 57 -118 c68 -141 137 -337 164 -468 3 -11 7 -31 10 -45 10 -46 13 -65 20
-120 3 -30 8 -68 10 -85 5 -38 6 -298 1 -345 -25 -242 -97 -520 -186 -715 -13
-27 -22 -51 -21 -53 1 -3 -82 -165 -89 -172 -3 -3 -6 -11 -8 -19 -2 -8 -12
-27 -23 -42 -10 -15 -19 -30 -19 -33 0 -8 -152 -249 -166 -263 -7 -7 -22 -29
-35 -50 -13 -21 -26 -40 -29 -43 -4 -3 -26 -32 -50 -65 -51 -70 -202 -252
-287 -345 -169 -188 -547 -548 -685 -655 -21 -16 -38 -33 -38 -37 0 -4 -4 -8
-9 -8 -6 0 -25 -14 -43 -31 -18 -17 -60 -51 -93 -77 -33 -25 -62 -49 -65 -52
-3 -3 -52 -42 -110 -86 -58 -43 -107 -81 -110 -84 -3 -3 -50 -38 -105 -78 -55
-39 -107 -78 -116 -87 -9 -8 -20 -15 -25 -15 -13 -1 -46 -42 -135 -170 -44
-63 -85 -122 -93 -131 -7 -8 -21 -30 -32 -47 -10 -18 -22 -32 -26 -32 -4 0 -8
-7 -8 -15 0 -8 -4 -15 -10 -15 -5 0 -10 -4 -10 -10 0 -5 -7 -18 -15 -27 -8
-10 -62 -85 -120 -168 -121 -174 -104 -150 -203 -288 -42 -60 -81 -116 -87
-125 -5 -9 -12 -19 -15 -22 -3 -3 -14 -18 -25 -35 -12 -16 -38 -53 -58 -82
l-38 -52 53 32 c103 64 436 280 453 294 6 5 46 33 90 62 103 69 408 283 415
291 3 3 45 34 94 68 48 35 93 67 100 73 6 5 29 23 51 40 22 16 47 35 55 42 9
7 54 41 100 76 47 36 99 76 116 90 17 14 45 37 63 51 17 14 37 30 44 35 58 49
134 112 143 120 7 6 26 21 44 35 17 14 49 42 71 63 21 20 41 37 44 37 2 0 18
12 34 27 16 16 64 60 106 98 43 39 94 85 114 103 51 48 330 322 326 322 -1 0
22 26 52 58 48 49 113 122 222 247 14 17 54 66 88 110 34 44 69 87 76 95 8 8
22 29 33 45 10 17 26 37 36 46 10 9 18 21 18 26 0 5 8 18 18 29 29 34 62 83
62 94 0 5 5 10 10 10 6 0 10 7 10 15 0 9 7 18 15 21 8 4 15 11 15 16 0 6 13
30 30 55 16 24 30 46 30 49 0 2 11 22 25 43 25 41 161 300 164 313 1 5 12 33
26 64 14 31 25 62 25 69 0 8 3 15 8 17 6 3 83 224 88 253 1 5 9 35 18 65 8 30
17 66 20 80 2 14 9 45 14 70 6 25 13 68 17 95 3 28 8 61 10 75 15 88 27 442
17 464 -3 4 -6 38 -8 75 -3 57 -14 145 -30 231 -19 104 -26 134 -44 205 -28
109 -28 110 -30 110 -1 0 -3 7 -5 15 -17 76 -104 290 -177 433 -22 43 -38 80
-36 81 5 4 413 185 441 195 15 6 46 19 70 30 54 25 556 223 622 246 28 9 59
21 70 25 32 13 153 57 235 85 191 66 345 117 359 120 9 2 30 9 46 15 17 6 37
13 45 15 8 2 35 10 60 18 55 18 221 70 235 72 6 2 44 13 85 25 41 12 85 24 99
27 14 2 31 9 38 15 7 6 13 8 13 5 0 -3 33 4 72 15 40 11 77 21 83 22 5 1 16 5
23 10 7 4 16 5 19 2 3 -3 11 -2 17 3 6 5 25 11 41 14 17 3 50 10 75 17 25 7
54 14 65 17 37 8 50 11 50 13 0 1 10 3 22 6 13 2 88 19 166 38 162 39 190 46
230 52 16 2 32 6 37 9 4 3 25 7 45 11 96 15 135 25 135 33 0 9 -302 6 -450 -4
-58 -3 -136 -9 -175 -11 -38 -2 -101 -7 -140 -11 -38 -3 -87 -6 -107 -7 -21
-1 -38 -4 -38 -7 0 -3 -15 -5 -32 -4 -18 0 -49 -3 -68 -6 -19 -4 -66 -10 -105
-14 -38 -4 -77 -8 -85 -10 -25 -6 -123 -19 -152 -19 -16 -1 -28 -3 -28 -6 0
-3 -12 -5 -27 -5 -16 1 -32 -1 -38 -4 -5 -3 -21 -6 -35 -7 -14 -1 -41 -4 -60
-8 -19 -4 -51 -9 -70 -12 -19 -2 -46 -6 -60 -9 -14 -2 -38 -6 -55 -9 -58 -9
-258 -45 -335 -61 -14 -3 -45 -8 -70 -11 -25 -3 -48 -8 -52 -11 -5 -2 -18 -6
-30 -8 -13 -3 -70 -14 -128 -26 -58 -12 -115 -23 -127 -24 -11 -2 -32 -6 -45
-11 -12 -4 -32 -8 -43 -10 -11 -2 -29 -5 -40 -8 -33 -8 -208 -47 -232 -52 -12
-2 -34 -9 -48 -14 -14 -5 -25 -8 -25 -5 0 2 -15 -1 -32 -6 -18 -5 -44 -12 -58
-14 -14 -2 -70 -16 -125 -30 -55 -15 -110 -29 -122 -31 -12 -2 -35 -9 -50 -15
-16 -6 -30 -10 -33 -10 -9 1 -141 -39 -305 -92 -88 -28 -162 -52 -165 -52 -3
-1 -13 -5 -22 -9 -20 -9 -19 -10 -113 99 -77 89 -316 328 -390 390 -58 49 -81
68 -120 103 -39 35 -194 156 -265 207 -30 22 -57 42 -60 45 -12 15 -365 245
-372 243 -5 -2 -8 1 -8 6 0 5 -9 13 -20 16 -11 3 -26 12 -33 18 -7 7 -22 17
-32 23 -11 6 -78 45 -150 86 -198 114 -519 281 -685 356 -25 11 -80 36 -123
56 -42 19 -79 36 -82 36 -5 1 -111 48 -175 77 -19 9 -37 16 -40 16 -3 0 -34
13 -70 29 -35 16 -94 40 -130 54 -36 14 -74 29 -85 34 -22 8 -89 34 -120 46
-11 4 -23 6 -27 6 -5 -1 -8 2 -8 6 0 5 -6 9 -12 9 -7 0 -42 11 -78 25 -36 14
-105 40 -155 57 -49 18 -97 35 -105 38 -8 4 -17 7 -20 8 -3 0 -102 33 -220 72
-204 68 -269 89 -420 134 -99 30 -344 95 -395 104 -16 4 -34 10 -41 15 -6 6
-13 8 -16 5 -2 -3 -65 11 -139 30 -74 19 -146 36 -161 37 -15 2 -30 7 -34 11
-4 4 -19 7 -34 7 -15 0 -30 3 -34 7 -3 4 -14 8 -24 10 -10 1 -47 9 -82 18 -54
14 -139 34 -210 50 -8 2 -24 4 -34 4 -11 1 -16 4 -12 8 4 5 2148 8 4764 8
3932 0 4758 -2 4769 -13 7 -7 13 -21 13 -31 0 -9 4 -21 8 -26 5 -6 25 -53 46
-105 33 -83 53 -133 87 -215 4 -11 42 -105 84 -210 41 -104 79 -198 85 -207 5
-10 10 -22 10 -27 0 -5 8 -26 17 -47 9 -22 18 -43 19 -49 8 -27 80 -195 84
-195 3 0 5 357 5 794 l0 794 -5447 1 -5448 2 0 -371z"/>
<path d="M11529 12805 c-1 0 -2 -18 -3 -40 -1 -22 -5 -46 -9 -53 -5 -6 -5 -12
0 -12 10 0 10 -91 -1 -108 -4 -7 -4 -12 1 -12 4 0 8 -29 8 -65 0 -36 -4 -65
-8 -65 -5 0 -5 -6 0 -12 4 -7 7 -31 8 -53 l0 -40 2505 -2 c1378 -1 2514 -2
2525 -2 17 -1 -108 -63 -157 -78 -10 -3 -18 -9 -18 -12 0 -4 -6 -8 -12 -8 -7
0 -58 -22 -113 -48 -55 -25 -114 -53 -132 -61 -17 -8 -71 -33 -120 -55 -48
-23 -116 -54 -151 -70 -34 -16 -64 -29 -67 -30 -2 0 -41 -18 -85 -40 -44 -21
-82 -39 -85 -39 -2 0 -52 -23 -112 -51 -59 -28 -124 -58 -143 -66 -19 -9 -75
-35 -125 -58 -49 -23 -108 -50 -130 -60 -22 -10 -67 -30 -100 -45 -33 -16 -91
-43 -130 -60 -205 -94 -224 -103 -408 -190 -70 -33 -129 -60 -131 -60 -2 0
-57 -25 -122 -56 -66 -30 -135 -62 -154 -71 -36 -16 -97 -44 -285 -133 -60
-29 -116 -53 -122 -53 -7 0 -13 -4 -13 -9 0 -4 -4 -8 -9 -8 -10 0 -60 -22
-250 -111 -57 -27 -107 -49 -112 -49 -5 0 -9 -5 -9 -12 0 -6 -3 -9 -6 -6 -3 3
-37 -9 -75 -28 -38 -19 -74 -34 -79 -34 -6 0 -10 -4 -10 -8 0 -5 -6 -9 -13 -9
-18 0 -507 -241 -529 -261 -10 -8 -18 -12 -18 -9 0 4 -33 -14 -74 -38 -40 -25
-77 -45 -80 -45 -6 0 -52 -27 -132 -77 -10 -7 -40 -25 -66 -40 -27 -16 -48
-31 -48 -35 0 -5 -5 -8 -11 -8 -26 0 -383 -255 -524 -375 -33 -28 -73 -62 -90
-75 -51 -42 -288 -282 -335 -339 -25 -29 -50 -59 -55 -65 -6 -6 -31 -38 -55
-71 -25 -33 -47 -62 -50 -65 -49 -49 -250 -407 -250 -447 0 -7 -4 -13 -10 -13
-5 0 -10 -7 -10 -16 0 -9 -6 -30 -14 -47 -31 -73 -84 -249 -91 -307 -2 -14 -4
-25 -5 -25 -1 0 -3 -11 -5 -25 -1 -14 -6 -43 -9 -65 -21 -117 -22 -384 -2
-510 9 -61 18 -108 22 -126 2 -11 6 -27 8 -37 2 -9 9 -37 16 -62 7 -25 13 -49
15 -55 1 -5 5 -17 8 -25 3 -8 13 -37 22 -65 24 -74 83 -209 128 -295 22 -41
45 -85 51 -97 6 -13 14 -23 19 -23 4 0 7 -4 7 -9 0 -19 173 -264 252 -357 89
-105 257 -276 368 -374 40 -36 78 -69 84 -75 6 -5 27 -22 46 -36 19 -15 44
-35 55 -46 24 -22 228 -174 300 -223 28 -19 51 -37 53 -42 2 -4 10 -8 18 -8 8
0 14 -4 14 -10 0 -5 4 -10 10 -10 5 0 54 -29 109 -65 137 -89 274 -170 284
-167 4 1 7 -2 7 -7 0 -5 9 -12 19 -16 11 -3 59 -29 108 -57 77 -44 429 -222
443 -223 3 0 39 -17 80 -37 142 -69 290 -138 293 -136 1 1 16 -5 32 -15 37
-21 222 -103 330 -146 11 -5 31 -13 45 -19 14 -6 54 -23 90 -38 36 -14 76 -31
90 -37 14 -5 30 -11 35 -13 6 -1 28 -10 50 -19 63 -27 90 -38 95 -40 26 -6 87
-29 95 -35 6 -5 12 -8 15 -8 3 -1 18 -5 33 -11 16 -6 32 -9 36 -7 4 3 7 118 7
257 -1 213 -3 253 -16 260 -8 4 -94 37 -190 73 -96 35 -188 70 -205 77 -16 7
-35 13 -41 14 -6 2 -27 10 -45 18 -19 9 -63 28 -99 42 -36 15 -89 38 -118 51
-29 13 -55 24 -58 24 -3 0 -26 10 -52 21 -26 12 -74 34 -107 49 -132 60 -166
76 -305 144 -80 39 -147 73 -150 76 -3 3 -32 18 -65 34 -33 17 -102 54 -154
83 -51 29 -97 53 -102 53 -5 0 -9 4 -9 9 0 5 -8 11 -17 15 -10 3 -31 14 -48
23 -37 22 -134 83 -161 101 -10 7 -27 15 -36 18 -10 4 -18 10 -18 15 0 4 -16
16 -35 25 -19 9 -35 20 -35 25 0 5 -7 9 -15 9 -8 0 -15 5 -15 10 0 6 -7 10
-15 10 -8 0 -15 5 -15 10 0 6 -6 10 -13 10 -7 0 -24 11 -39 25 -15 14 -30 25
-33 25 -3 0 -29 18 -58 40 -29 22 -63 49 -77 59 -14 11 -35 28 -46 38 -12 10
-36 29 -54 43 -17 13 -42 33 -54 45 -12 11 -42 37 -67 58 -102 89 -254 243
-324 330 -16 21 -38 48 -49 60 -46 54 -96 125 -96 135 0 5 -4 12 -9 14 -21 8
-184 302 -196 356 -3 9 -15 49 -29 87 -29 85 -45 140 -50 180 -2 17 -5 30 -6
30 -6 0 -19 151 -20 224 -2 79 7 187 20 251 6 30 13 68 16 83 17 98 125 366
186 462 64 99 113 171 120 173 4 2 8 10 8 17 0 7 3 15 8 17 4 2 25 26 47 53
105 131 254 281 414 415 29 25 61 52 69 60 9 8 23 19 32 25 10 5 59 42 111 80
52 39 115 84 141 100 27 17 48 33 48 38 0 4 5 7 10 7 6 0 48 24 94 54 46 30
101 64 122 76 21 12 57 32 79 46 22 13 52 29 68 35 15 6 27 15 27 20 0 5 4 9
10 9 5 0 46 20 90 44 44 25 80 42 80 38 0 -4 4 -2 8 3 4 6 32 22 62 37 118 57
136 66 165 81 47 24 269 131 275 132 12 3 225 109 230 114 3 3 10 7 15 8 9 1
335 158 585 281 52 26 97 47 100 48 3 0 95 45 205 99 110 54 202 99 205 100 6
1 147 70 480 233 129 63 241 115 248 115 6 0 12 3 12 6 0 3 15 13 33 20 17 8
133 64 257 124 124 60 288 140 365 177 77 37 185 89 240 116 55 27 103 48 108
46 4 -1 7 2 7 7 0 8 35 22 44 18 2 -1 12 6 22 15 11 9 21 16 24 16 3 0 75 34
160 75 350 169 467 224 498 238 17 8 32 17 32 21 0 5 4 8 9 8 12 0 118 49 381
177 113 55 268 130 345 167 77 37 168 82 203 99 l63 31 -3 45 -3 46 -3352 0
c-1844 0 -3354 0 -3354 0z"/>
<path d="M5381 5100 c-4 -3 -7 -106 -7 -230 l1 -225 100 -2 c122 -3 108 -4
175 0 30 1 61 -1 68 -6 6 -5 12 -6 12 -1 0 5 23 9 50 9 28 0 50 -4 50 -9 0 -5
6 -4 13 1 6 5 39 7 72 6 76 -4 66 -4 158 -1 42 2 77 -1 77 -5 0 -5 5 -5 12 -1
16 10 178 11 178 1 0 -5 5 -5 12 -1 16 10 98 11 98 1 0 -5 6 -5 12 0 17 10
218 10 218 0 0 -5 5 -5 12 -1 17 11 108 11 108 0 0 -5 6 -4 13 1 6 5 32 7 57
6 52 -4 41 -4 143 0 42 1 77 -1 77 -6 0 -4 6 -5 12 0 17 10 218 10 218 0 0 -5
5 -5 12 -1 17 11 108 11 108 0 0 -5 6 -4 13 1 6 5 32 7 57 6 25 -2 52 -3 60
-3 12 0 218 0 255 0 6 0 35 1 65 3 30 1 61 -1 68 -6 6 -5 12 -6 12 -1 0 5 18
9 40 9 22 0 40 -4 40 -8 0 -5 6 -5 12 0 17 10 218 10 218 0 0 -5 5 -5 12 -1
17 11 108 11 108 0 0 -5 6 -4 13 1 6 5 32 7 57 6 25 -2 52 -3 60 -3 12 0 218
0 255 0 6 0 35 1 65 3 30 1 61 -1 68 -6 6 -5 12 -6 12 -1 0 5 37 8 82 7 102
-3 92 -4 158 0 30 1 61 -1 68 -6 6 -5 12 -6 12 -1 0 5 18 9 40 9 22 0 40 -4
40 -8 0 -5 6 -5 12 0 17 10 218 10 218 0 0 -5 5 -5 12 -1 17 11 108 11 108 0
0 -5 6 -4 13 1 6 5 32 7 57 6 25 -2 52 -3 60 -3 12 0 218 0 255 0 6 0 35 1 65
3 30 1 61 -1 68 -6 6 -5 12 -6 12 -1 0 5 37 8 82 7 102 -3 92 -4 158 0 30 1
61 -1 68 -6 6 -5 12 -6 12 -1 0 5 18 9 40 9 22 0 40 -4 40 -8 0 -5 6 -5 12 0
17 10 218 10 218 0 0 -5 5 -5 12 -1 17 11 108 11 108 0 0 -5 6 -4 13 1 6 5 32
7 57 6 25 -2 52 -3 60 -3 12 0 218 0 255 0 6 0 35 1 65 3 30 1 61 -1 68 -6 6
-5 12 -6 12 -1 0 5 37 8 82 7 102 -3 92 -4 158 0 30 1 61 -1 68 -6 6 -5 12 -6
12 -1 0 5 18 9 40 9 22 0 40 -4 40 -8 0 -5 6 -5 12 0 17 10 218 10 218 0 0 -5
5 -5 12 -1 17 11 108 11 108 0 0 -5 6 -4 13 1 6 5 32 7 57 6 25 -2 52 -3 60
-3 12 0 218 0 255 0 6 0 35 1 65 3 30 1 61 -1 68 -6 6 -5 12 -6 12 -1 0 5 18
9 40 9 22 0 40 -4 40 -8 0 -5 6 -5 12 0 18 10 218 10 218 -1 0 -5 6 -4 13 1 6
5 23 8 37 6 14 -2 32 -3 40 -3 8 0 48 1 88 2 39 1 72 5 72 9 0 4 -33 20 -72
34 -40 15 -77 32 -82 36 -6 5 -15 9 -22 9 -6 0 -38 12 -70 27 -33 15 -61 28
-64 28 -3 1 -36 16 -74 33 -38 18 -70 32 -72 32 -5 0 -211 98 -369 176 l-160
79 -3478 0 c-1914 0 -3482 -2 -3486 -5z"/>
</g>
</svg>
